# xmcd CD database file
#
# Track frame offsets:
#	150
#	16860
#	34907
#	51612
#
# Disc length: 927 seconds
#
# Revision: 0
# Processed by: cddbd v1.5PL3 Copyright (c) Steve Scherf et al.
# Submitted via: CDex 1.50beta8
#
DISCID=2f039d04
DTITLE=米倉千尋 - Just Fly Away
DYEAR=2000
DGENRE=Anime
TTITLE0=Just Fly Away
TTITLE1=Sweet True Love
TTITLE2=Just Fly Away(Off Vocal Version)
TTITLE3=Sweet True Love(Off Vocal Version)
EXTD=YEAR: 2000
EXTT0=
EXTT1=
EXTT2=
EXTT3=
PLAYORDER=
